# xmcd CD database file
#
# Track frame offsets:
#	150
#	13052
#	39799
#	56416
#	68181
#	80128
#	90605
#	112144
#	126011
#	141536
#	155728
#	170110
#	193302
#	207861
#	226721
#	242576
#	259443
#	272998
#
# Disc length: 3790 seconds
#
# Revision: 11
# Processed by: cddbd v1.5.1PL2 Copyright (c) Steve Scherf et al.
# Submitted via: CDex 1.51
#
DISCID=0f0ecc12
DTITLE=Various Artist - The Jazz Station  CD3
DYEAR=1998
DGENRE=Jazz
TTITLE0=Dinah Washington - Mad About The Boy
TTITLE1=Louis Armstrong and Ella Fitzgerald - Cheek To Cheek
TTITLE2=Nina Simone - My Baby Just Cares For Me
TTITLE3=Louis Prima and Keely Smith - I've Got You Under My Skin
TTITLE4=Nat King Cole - Love Is A Many Splendoured Thing
TTITLE5=Louis Armstrong - What A Wonderful World
TTITLE6=Lionel Hampton and Dinah Washington - Close To You
TTITLE7=Tony Bennet With The Count Basie Orchestra - I've Grown Accustomed To Her Face
TTITLE8=Peggy Lee - September In The Rain
TTITLE9=Lena Horne - More Than You Know
TTITLE10=Billie Holiday - Carelessly
TTITLE11=Lionel Hampton and Dinah Washington - Willow Weep For Me
TTITLE12=Sarah Vaughan - Summertime
TTITLE13=Nina Simone - I Love You Porgy
TTITLE14=Dinah Washington - Smoke Gets In Your Eyes
TTITLE15=Louis Armstrong and Ella Fitzgerald - Moonlight In Vermont
TTITLE16=Louis Armstrong - A Kiss To Build A Dream On
TTITLE17=Benny Goodman - Stompin' At The Savoy
EXTD=YEAR: 1998
EXTT0=
EXTT1=
EXTT2=
EXTT3=
EXTT4=
EXTT5=
EXTT6=
EXTT7=
EXTT8=
EXTT9=
EXTT10=
EXTT11=
EXTT12=
EXTT13=
EXTT14=
EXTT15=
EXTT16=
EXTT17=
PLAYORDER=
